# xmcd
#
# Track frame offsets:
#	157
#	16790
#	44927
#	70860
#	92285
#	113047
#	141962
#
# Disc length: 2220 seconds
#
# Revision: 3
# Processed by: cddbd v1.5.2PL0 Copyright (c) Steve Scherf et al.
# Submitted via: audiograbber 1.83.01
#
DISCID=5808aa07
DTITLE=Allan Holdsworth - Atavachron
DYEAR=1986
DGENRE=Jazz
TTITLE0=Non Brewed Condiment
TTITLE1=Funnels
TTITLE2=The Dominant Plague
TTITLE3=Atavachron
TTITLE4=Looking Glass
TTITLE5=Mr. Berwell
TTITLE6=All Our Yesterdays
EXTD=
EXTT0=
EXTT1=
EXTT2=
EXTT3=
EXTT4=
EXTT5=
EXTT6=
PLAYORDER=
